<svg width="20" height="20" viewBox="0 0 20 20" fill="none" xmlns="http://www.w3.org/2000/svg">
<path d="M6.00002 14.5L6.00002 5.50002C6.00002 5.3011 6.07904 5.11034 6.21969 4.96969C6.36034 4.82903 6.55111 4.75002 6.75002 4.75002L9.00002 4.75002L9.00002 1.00002C8.99991 0.851594 9.04383 0.706473 9.12623 0.583028C9.20864 0.459582 9.32581 0.363364 9.46293 0.30655C9.60005 0.249736 9.75094 0.234882 9.8965 0.263869C10.0421 0.292857 10.1758 0.364381 10.2806 0.46939L19.2806 9.46939C19.3504 9.53905 19.4057 9.62176 19.4434 9.71281C19.4812 9.80386 19.5006 9.90146 19.5006 10C19.5006 10.0986 19.4812 10.1962 19.4434 10.2872C19.4057 10.3783 19.3504 10.461 19.2806 10.5306L10.2806 19.5306C10.1758 19.6357 10.0421 19.7072 9.8965 19.7362C9.75094 19.7652 9.60004 19.7503 9.46293 19.6935C9.32581 19.6367 9.20863 19.5405 9.12623 19.417C9.04383 19.2936 8.9999 19.1484 9.00002 19L9.00002 15.25L6.75002 15.25C6.55111 15.25 6.36034 15.171 6.21969 15.0303C6.07904 14.8897 6.00002 14.6989 6.00002 14.5ZM3.75002 15.25C3.94893 15.25 4.1397 15.171 4.28035 15.0303C4.421 14.8897 4.50002 14.6989 4.50002 14.5L4.50002 5.50002C4.50002 5.3011 4.42101 5.11034 4.28035 4.96969C4.1397 4.82903 3.94893 4.75002 3.75002 4.75002C3.55111 4.75002 3.36034 4.82903 3.21969 4.96969C3.07904 5.11034 3.00002 5.3011 3.00002 5.50002L3.00002 14.5C3.00002 14.6989 3.07904 14.8897 3.21969 15.0303C3.36034 15.171 3.55111 15.25 3.75002 15.25ZM0.750021 15.25C0.948933 15.25 1.1397 15.171 1.28035 15.0303C1.421 14.8897 1.50002 14.6989 1.50002 14.5L1.50002 5.50002C1.50002 5.3011 1.421 5.11034 1.28035 4.96968C1.1397 4.82903 0.948934 4.75002 0.750022 4.75002C0.551111 4.75002 0.360343 4.82903 0.219692 4.96968C0.0790399 5.11034 2.22441e-05 5.3011 2.22267e-05 5.50002L2.14399e-05 14.5C2.14225e-05 14.6989 0.079039 14.8897 0.219691 15.0303C0.360342 15.171 0.55111 15.25 0.750021 15.25Z" fill="#B3B3B3"/>
</svg>
